<svg width="76" height="67" viewBox="0 0 76 67" fill="none" xmlns="http://www.w3.org/2000/svg">
<path d="M59.9133 16.7005C59.28 15.061 57.5067 13.8939 55.4167 13.8939H20.5833C18.4933 13.8939 16.7517 15.061 16.0867 16.7005L9.5 33.3453V55.5755C9.5 57.1038 10.925 58.3543 12.6667 58.3543H15.8333C17.575 58.3543 19 57.1038 19 55.5755V52.7967H57V55.5755C57 57.1038 58.425 58.3543 60.1667 58.3543H63.3333C65.075 58.3543 66.5 57.1038 66.5 55.5755V33.3453L59.9133 16.7005ZM20.5833 44.4604C17.955 44.4604 15.8333 42.5986 15.8333 40.2923C15.8333 37.9859 17.955 36.1241 20.5833 36.1241C23.2117 36.1241 25.3333 37.9859 25.3333 40.2923C25.3333 42.5986 23.2117 44.4604 20.5833 44.4604ZM55.4167 44.4604C52.7883 44.4604 50.6667 42.5986 50.6667 40.2923C50.6667 37.9859 52.7883 36.1241 55.4167 36.1241C58.045 36.1241 60.1667 37.9859 60.1667 40.2923C60.1667 42.5986 58.045 44.4604 55.4167 44.4604ZM15.8333 30.5666L20.5833 18.0621H55.4167L60.1667 30.5666H15.8333Z" fill="#00A8FF"/>
</svg>
