<svg width="138" height="138" viewBox="0 0 138 138" fill="none" xmlns="http://www.w3.org/2000/svg">
<g clip-path="url(#clip0_11_72)">
<path d="M91.0207 0.592947C90.6434 0.943338 90.0234 2.12928 89.5922 3.23435C88.1906 7.0617 87.0316 8.22068 83.0695 9.7031C80.7246 10.6195 80.0508 11.2125 80.0508 12.4523C80.0508 13.5304 80.7785 14.0965 83.4199 15.1207C86.8699 16.4144 88.1098 17.6543 89.5652 21.266C90.5355 23.6648 90.832 24.123 91.5059 24.4195C92.1527 24.689 92.5031 24.689 93.177 24.3926C93.8777 24.0961 94.1473 23.6918 94.9828 21.4816C96.5191 17.5465 97.759 16.3875 102.098 14.8242C103.904 14.1504 104.578 13.5035 104.578 12.3984C104.578 11.2125 103.85 10.5926 101.532 9.7031C97.5434 8.16677 96.3574 7.00779 95.0098 3.15349C93.9316 0.134745 92.5031 -0.781662 91.0207 0.592947ZM95.7375 11.5898L96.7617 12.3445L95.6297 13.0992C95.0098 13.5304 94.0664 14.4738 93.5004 15.1746C92.9344 15.8754 92.3953 16.4683 92.3145 16.4683C92.2066 16.4683 91.7754 15.9832 91.3441 15.3902C90.9129 14.7972 89.9695 13.8539 89.2418 13.3148L87.8941 12.3176L88.9184 11.5629C89.4844 11.1586 90.4816 10.2152 91.1285 9.46053L92.3145 8.11287L93.5004 9.48748C94.1742 10.2422 95.1715 11.1855 95.7375 11.5898Z" fill="url(#paint0_linear_11_72)"/>
<path d="M126.356 2.96485C125.925 3.28828 125.413 4.23164 125.036 5.30977C124.227 7.62774 123.041 8.84063 120.804 9.67617C118.486 10.5387 117.785 11.1586 117.785 12.2637C117.785 13.5035 118.459 14.1504 120.48 14.8512C122.906 15.7406 124.065 16.8457 124.928 19.2176C125.763 21.4277 126.383 22.1016 127.596 22.1016C128.728 22.1016 129.402 21.3469 130.211 19.1906C131.046 16.9805 132.205 15.8484 134.55 14.932C138.431 13.3957 138.512 11.2664 134.739 9.83789C132.07 8.81367 131.235 7.97813 130.184 5.39062C128.998 2.45274 127.866 1.75196 126.356 2.96485ZM128.701 13.4227L127.596 14.5816L126.437 13.4496L125.305 12.3176L126.41 11.1855L127.542 10.0266L128.674 11.1586L129.833 12.2637L128.701 13.4227Z" fill="url(#paint1_linear_11_72)"/>
<path d="M112.907 16.1719C112.664 16.3066 112.071 17.4117 111.586 18.5977C110.535 21.2391 109.457 22.2633 106.761 23.2875C104.74 24.0691 104.309 24.5273 104.309 25.8211C104.309 26.8184 105.063 27.4652 107.354 28.4355C109.672 29.3789 110.535 30.2414 111.451 32.5324C112.314 34.7426 113.041 35.5781 114.039 35.5781C115.117 35.5781 116.006 34.6078 116.734 32.6402C117.543 30.3223 118.782 29.1094 121.127 28.2738C125.009 26.9262 124.982 24.5004 121.1 23.1527C118.755 22.3172 117.57 21.1582 116.734 18.8672C116.384 17.8969 115.845 16.8457 115.548 16.4953C114.955 15.8754 113.688 15.7137 112.907 16.1719ZM115.279 26.8723L114.146 28.0043L113.014 26.8992L111.855 25.7672L112.988 24.6082L114.12 23.4492L115.279 24.5813L116.438 25.7133L115.279 26.8723Z" fill="url(#paint2_linear_11_72)"/>
<path d="M59.0274 31.8047C49.3782 32.2359 35.9555 33.7723 33.0715 34.7426C30.8075 35.5242 28.5973 36.791 26.9801 38.1926C24.5274 40.3219 23.2336 42.532 20.1879 49.7016C18.6516 53.3402 17.3039 56.332 17.2231 56.332C17.1153 56.332 16.8997 55.9547 16.711 55.5234C16.2797 54.4723 15.0668 53.448 13.8 53.0977C12.9915 52.8551 12.0211 52.909 8.62504 53.502C3.34223 54.3914 2.93793 54.5262 1.77895 55.793C-0.323394 58.1379 -0.242535 61.8305 1.99457 64.0406C3.01879 65.0648 3.31528 65.1996 6.33403 65.8734C8.11293 66.2777 9.91879 66.709 10.3231 66.7898L11.0778 66.9785L9.13715 69.9434C6.76528 73.582 5.57934 76.0887 4.7977 79.0266C4.23168 81.1828 4.20473 81.8566 4.12387 96.1148C3.98911 112.718 4.04301 113.338 5.79497 116.869C7.46606 120.319 10.9969 122.987 15.3633 124.173C17.0075 124.631 20.2418 124.658 69 124.658C117.947 124.658 120.993 124.631 122.637 124.173C128.62 122.529 132.394 118.675 133.58 112.934C133.93 111.236 133.984 108.702 133.876 95.9531C133.795 81.3984 133.768 80.9402 133.175 78.8379C132.34 75.927 131.154 73.4742 128.863 69.9434L126.922 66.9785L127.677 66.8168C128.081 66.709 129.887 66.3047 131.666 65.9004C134.685 65.1996 134.981 65.0918 136.006 64.0406C138.243 61.8305 138.323 58.1379 136.221 55.793C135.062 54.5262 134.658 54.3914 129.375 53.502C125.979 52.909 125.009 52.8551 124.2 53.0977C122.933 53.448 121.72 54.4723 121.289 55.5234C121.1 55.9547 120.885 56.332 120.777 56.332C120.696 56.332 119.348 53.3402 117.812 49.7016C114.012 40.7801 112.206 38.3004 107.813 36.0094C104.74 34.4191 102.934 34.0148 94.4168 33.0176C84.6329 31.8855 69.1348 31.3465 59.0274 31.8047ZM83.8243 36.3867C88.7836 36.7371 94.4977 37.3301 99.3223 38.0309C102.341 38.4621 103.5 38.7586 105.036 39.4863C107.085 40.4297 109.133 42.1547 110.346 43.9066C110.75 44.4727 112.691 48.7043 114.632 53.2594L118.216 61.5879L122.556 68.1914C127.407 75.6035 128.027 76.7355 128.89 79.5656C129.429 81.4254 129.483 82.1262 129.591 92.2336L129.672 102.961H71.345C14.7434 102.961 12.9915 102.988 12.3715 103.473C11.536 104.147 11.509 105.71 12.3446 106.546L12.9645 107.139L71.2911 107.22L129.645 107.273V109.025C129.645 115.198 126.302 119.268 120.481 120.184C119.322 120.373 101.937 120.48 68.7305 120.48C26.8184 120.48 18.436 120.4 16.9536 120.103C12.3715 119.133 9.46059 116.303 8.62504 111.99C8.40942 110.831 8.35551 106.168 8.40942 95.9531C8.54418 77.652 8.13989 79.377 14.7704 69.1887L18.436 63.6094H65.7926H113.176L113.877 62.9895C114.82 62.2078 114.874 60.8871 114.012 59.9707L113.392 59.2969H67.1942C39.2438 59.2969 21.0235 59.1891 21.0235 59.0543C21.0235 58.7578 26.2524 46.4133 26.9801 44.9578C27.2497 44.4187 28.1661 43.2328 29.0016 42.3434C31.104 40.0793 33.8801 38.7316 37.5997 38.1656C44.0954 37.1953 53.5829 36.3328 61.7227 36.0094C65.4422 35.8477 79.5926 36.1172 83.8243 36.3867ZM12.8567 57.4641C13.234 57.9492 14.5547 61.1566 14.5547 61.534C14.5547 61.7227 14.3122 62.1539 14.0426 62.5043L13.5575 63.1242L9.32582 62.1539C6.9809 61.6148 4.95942 61.1027 4.82465 61.0219C4.44731 60.8062 4.52817 58.7578 4.93247 58.623C5.17504 58.5152 10.5657 57.491 12.4254 57.1676C12.5332 57.1406 12.7219 57.3023 12.8567 57.4641ZM129.779 57.9492C131.558 58.2727 133.095 58.65 133.202 58.8387C133.472 59.2699 133.472 60.4289 133.202 60.8332C133.068 61.0219 131.046 61.6148 128.701 62.127L124.416 63.0973L123.931 62.4773C123.311 61.6688 123.311 61.507 124.173 59.5125C125.089 57.3562 125.278 57.1137 125.979 57.2754C126.275 57.3293 128 57.6527 129.779 57.9492Z" fill="url(#paint3_linear_11_72)"/>
<path d="M16.4414 76.8434C15.4711 77.2477 14.5816 78.1371 13.9348 79.377C13.4496 80.2664 13.3688 80.9402 13.3418 83.1504C13.3418 85.5762 13.4227 86.0074 14.0965 87.409C14.8242 88.8645 16.1988 90.1312 17.6004 90.6434C18.3281 90.9129 36.8988 93.5273 38.0578 93.5273C39.3785 93.5273 40.268 92.7727 40.268 91.6137C40.268 90.2391 35.3625 81.668 33.1793 79.1613C32.1012 77.9484 31.4543 77.7598 26.4141 77.2477C20.673 76.6547 17.223 76.5199 16.4414 76.8434ZM24.5273 81.3984C26.5219 81.5602 28.5703 81.7488 29.0824 81.8566C30.0797 82.0184 30.7535 82.827 32.9367 86.5195C33.9609 88.2445 34.1227 88.6758 33.7453 88.6758C33.5027 88.6758 30.0258 88.1906 26.0367 87.5977C20.2418 86.7621 18.6785 86.4656 18.2742 86.0613C17.7082 85.4684 17.3578 83.2852 17.6273 81.8027L17.816 80.8324L19.3523 80.9941C20.1879 81.075 22.5328 81.2637 24.5273 81.3984Z" fill="url(#paint4_linear_11_72)"/>
<path d="M115.494 76.8434C111.235 77.1668 106.573 77.8137 105.926 78.1641C105.117 78.5953 103.473 80.8055 101.532 84.0398C98.6214 88.8914 97.5163 91.1555 97.705 91.9102C98.0015 93.0422 98.6214 93.5273 99.8343 93.5273C101.398 93.5273 119.645 90.9398 120.561 90.5895C122.987 89.673 124.523 87.2203 124.739 83.9859C124.955 80.5898 123.715 77.7867 121.639 76.9242C120.696 76.5199 119.968 76.5199 115.494 76.8434ZM120.211 81.3715C120.939 82.773 120.238 86.0613 119.079 86.4926C118.324 86.7621 104.039 88.7836 103.904 88.6219C103.769 88.5141 107.112 83.1234 107.732 82.4227C107.974 82.1531 108.54 81.8836 108.998 81.8027C109.645 81.6949 115.09 81.2098 119.456 80.8863C119.726 80.8863 120.049 81.102 120.211 81.3715Z" fill="url(#paint5_linear_11_72)"/>
<path d="M39.4863 79.6465C39.109 79.9969 38.8125 80.5898 38.8125 80.9672C38.8125 81.8027 44.5266 93.9586 45.2543 94.7133C45.7934 95.2254 46.548 95.3062 57.518 95.9261L69.1887 96.6L80.6977 95.9261C92.1797 95.2793 92.1797 95.2793 92.8266 94.6054C93.6621 93.7429 99.1875 81.9105 99.1875 80.9941C99.1875 80.5898 98.891 79.9969 98.4867 79.5926C97.8129 78.9187 97.732 78.8918 95.468 79.0804C71.4797 80.9402 67.3828 80.9941 48.3809 79.5117C39.9445 78.8379 40.268 78.8379 39.4863 79.6465ZM53.2324 84.2554C65.0109 85.1449 74.6332 85.064 88.5141 83.932C91.1824 83.7433 93.3926 83.5816 93.4195 83.6355C93.5004 83.7164 90.2121 90.7511 89.9965 90.9398C89.9156 91.0207 85.3336 91.3441 79.7812 91.6676C69.7547 92.2605 69.593 92.2605 61.0488 91.8023C56.3051 91.5328 51.4266 91.2633 50.1867 91.1824L47.9766 91.0207L47.4645 89.9156C47.1949 89.2957 46.3863 87.6246 45.7125 86.1691L44.4727 83.5008L46.1438 83.6894C47.0871 83.7703 50.2676 84.0129 53.2324 84.2554Z" fill="url(#paint6_linear_11_72)"/>
<path d="M4.68994 122.502L4.01611 123.176L4.09697 128.917C4.17783 134.658 4.17783 134.685 4.90557 135.763C5.33682 136.41 6.0915 137.084 6.79229 137.434C7.89736 137.973 8.40947 138 14.5009 138C19.7837 138 21.2392 137.919 22.0478 137.596C24.4735 136.571 25.3091 134.927 25.336 131.235C25.336 129.025 25.2552 128.539 24.77 127.92C24.3388 127.38 23.9884 127.219 23.2067 127.219C21.5626 127.219 21.1853 127.866 21.0235 130.938L20.8888 133.553H14.6896H8.49033L8.32861 128.297C8.24775 125.413 8.16689 123.014 8.13994 122.987C6.9001 121.639 5.71416 121.478 4.68994 122.502Z" fill="url(#paint7_linear_11_72)"/>
<path d="M130.345 122.394L129.645 122.933V128C129.645 131.558 129.537 133.148 129.321 133.364C129.079 133.607 127.327 133.687 123.122 133.687C116.276 133.687 116.707 133.903 116.707 130.48C116.707 127.973 116.249 127.219 114.793 127.219C113.041 127.219 112.395 128.243 112.395 131.1C112.421 134.523 113.392 136.545 115.467 137.488C116.438 137.919 117.3 138 123.176 138C130.534 138 131.235 137.838 132.69 136.14C133.768 134.846 133.957 133.714 133.957 128.378C133.957 123.499 133.957 123.472 133.256 122.664C132.421 121.666 131.396 121.559 130.345 122.394Z" fill="url(#paint8_linear_11_72)"/>
</g>
<defs>
<linearGradient id="paint0_linear_11_72" x1="92.3145" y1="24.6184" x2="92.3145" y2="-0.030817" gradientUnits="userSpaceOnUse">
<stop stop-color="#6A2C91"/>
<stop offset="1" stop-color="#00A7FF"/>
</linearGradient>
<linearGradient id="paint1_linear_11_72" x1="127.65" y1="22.1016" x2="127.65" y2="2.3982" gradientUnits="userSpaceOnUse">
<stop stop-color="#6A2C91"/>
<stop offset="1" stop-color="#00A7FF"/>
</linearGradient>
<linearGradient id="paint2_linear_11_72" x1="114.167" y1="35.5781" x2="114.167" y2="15.9091" gradientUnits="userSpaceOnUse">
<stop stop-color="#6A2C91"/>
<stop offset="1" stop-color="#00A7FF"/>
</linearGradient>
<linearGradient id="paint3_linear_11_72" x1="69" y1="124.658" x2="69" y2="31.6415" gradientUnits="userSpaceOnUse">
<stop stop-color="#6A2C91"/>
<stop offset="1" stop-color="#00A7FF"/>
</linearGradient>
<linearGradient id="paint4_linear_11_72" x1="26.8049" y1="93.5273" x2="26.8049" y2="76.6721" gradientUnits="userSpaceOnUse">
<stop stop-color="#6A2C91"/>
<stop offset="1" stop-color="#00A7FF"/>
</linearGradient>
<linearGradient id="paint5_linear_11_72" x1="111.224" y1="93.5273" x2="111.224" y2="76.61" gradientUnits="userSpaceOnUse">
<stop stop-color="#6A2C91"/>
<stop offset="1" stop-color="#00A7FF"/>
</linearGradient>
<linearGradient id="paint6_linear_11_72" x1="69" y1="96.6" x2="69" y2="78.9796" gradientUnits="userSpaceOnUse">
<stop stop-color="#6A2C91"/>
<stop offset="1" stop-color="#00A7FF"/>
</linearGradient>
<linearGradient id="paint7_linear_11_72" x1="14.6761" y1="138" x2="14.6761" y2="121.839" gradientUnits="userSpaceOnUse">
<stop stop-color="#6A2C91"/>
<stop offset="1" stop-color="#00A7FF"/>
</linearGradient>
<linearGradient id="paint8_linear_11_72" x1="123.176" y1="138" x2="123.176" y2="121.834" gradientUnits="userSpaceOnUse">
<stop stop-color="#6A2C91"/>
<stop offset="1" stop-color="#00A7FF"/>
</linearGradient>
<clipPath id="clip0_11_72">
<rect width="138" height="138" fill="white"/>
</clipPath>
</defs>
</svg>
