<svg width="138" height="138" viewBox="0 0 138 138" fill="none" xmlns="http://www.w3.org/2000/svg">
<path d="M39.2168 2.34497C29.0285 3.55786 20.4035 7.76254 13.6113 14.8512C8.00508 20.7001 4.36641 27.7887 2.77617 35.9825C2.1293 39.3516 2.1293 46.9254 2.77617 50.2676C4.44727 58.7309 7.92422 65.5231 13.7191 71.5336C25.4168 83.6625 43.2059 87.3551 58.8926 80.9133L61.5879 79.7813L65.9274 84.0938C70.9676 89.134 71.1293 89.1879 73.2047 87.2743L74.4176 86.1422L88.4871 100.212C104.767 116.491 103.204 115.386 106.088 112.61L107.813 110.966L113.554 116.626C118.89 121.909 119.429 122.367 121.559 123.391C123.203 124.2 124.47 124.604 126.006 124.82C127.192 124.982 128.539 125.17 128.998 125.224C129.456 125.278 130.184 125.709 130.615 126.168C131.262 126.841 131.396 127.219 131.396 128.297C131.396 129.456 131.262 129.752 130.507 130.507L129.645 131.397H103.554H77.4902L75.7922 130.48C72.8004 128.836 71.5606 126.761 71.1563 122.664C70.7789 118.567 69.593 115.979 67.0594 113.554C66.2508 112.799 64.957 111.856 64.2024 111.478C61.2375 109.969 61.1567 109.969 42.8016 109.969H25.875V112.125V114.254L43.2059 114.335L60.5098 114.416L62.2078 115.332C65.1996 116.977 66.4395 119.052 66.8438 123.149C67.2211 127.273 68.407 129.833 70.9945 132.286C72.6387 133.822 75.0645 135.116 77.1938 135.574C78.1102 135.763 87.1125 135.844 104.443 135.79L130.318 135.709L131.531 135.062C133.202 134.2 134.146 133.256 134.954 131.693C136.356 128.944 135.979 125.656 133.957 123.364C132.475 121.693 131.019 121.047 127.973 120.75C123.742 120.319 122.718 119.645 116.33 113.23L110.939 107.839L112.61 106.088C115.386 103.204 116.491 104.767 100.212 88.4872L86.1422 74.4176L87.2742 73.2047C89.1879 71.1293 89.134 70.9676 84.0938 65.9004L79.7813 61.561L80.8863 58.8926C85.7918 47.195 84.9024 33.368 78.5684 22.6676C70.9406 9.75708 57.3024 1.96762 42.7207 2.18326C41.2383 2.21021 39.675 2.29106 39.2168 2.34497ZM50.0789 7.14262C61.1567 9.29887 70.8328 16.6571 75.9539 26.8454C77.1129 29.1633 78.5953 33.5567 79.1613 36.3329C79.8082 39.6211 79.8082 46.7368 79.1613 49.8364C78.6492 52.2083 77.625 55.6043 76.9242 57.3024L76.493 58.2997L72.0996 53.9063L67.6793 49.5129L68.3262 48.6774C70.5633 45.6586 71.5875 41.2114 70.9137 37.3032C70.725 36.252 70.1051 34.4731 69.4852 33.1524C68.434 30.9692 68.0836 30.5379 61.6149 24.0422C53.8793 16.2797 54.041 16.3606 51.9387 18.3012L50.8066 19.3524L48.5156 18.5977C44.3379 17.1961 40.9957 16.9266 36.791 17.6543C27.1688 19.3524 19.3523 27.1688 17.6543 36.7911C16.9266 40.9958 17.1961 44.3649 18.5977 48.5157L19.3523 50.8067L18.3012 51.9387C16.3605 54.0411 16.2797 53.8793 24.0422 61.6149C30.5379 68.0836 30.9691 68.434 33.1523 69.4852C34.4731 70.1051 36.252 70.725 37.3031 70.9137C41.2113 71.5875 45.6586 70.5633 48.6773 68.3262L49.5129 67.6793L53.9063 72.0997L58.2996 76.493L57.3024 76.9243C55.6043 77.625 52.2082 78.6493 49.8363 79.1614C46.7367 79.8083 39.6211 79.8083 36.3328 79.1614C23.0988 76.52 12.5063 67.1672 8.24766 54.3915C6.76523 49.8364 6.14531 43.7719 6.71133 39.0821C8.75977 22.1286 21.6164 9.08325 38.543 6.73833C41.0227 6.38794 47.4375 6.63052 50.0789 7.14262ZM44.6883 21.9938C45.8203 22.2364 46.9254 22.5059 47.0871 22.6137C47.3297 22.7215 46.9254 23.3145 45.8203 24.3926L44.2301 25.9559L43.0172 24.8508C40.807 22.8024 41.2113 22.5598 31.8856 31.8856C22.5598 41.2114 22.8023 40.8071 24.8508 43.0172L25.9559 44.2301L24.3926 45.8204C23.2875 46.9524 22.7484 47.3297 22.6137 47.0872C22.0207 46.036 21.5086 42.0469 21.6434 39.729C21.9668 34.8774 23.7996 30.8614 27.3305 27.3305C32.1012 22.5868 38.2734 20.6731 44.6883 21.9938ZM59.4856 28.0852C64.2563 32.8829 65.0379 33.7993 65.8195 35.4434C66.6281 37.1684 66.709 37.5458 66.709 39.8907C66.709 42.1278 66.6012 42.6668 65.9274 44.1223C65.4961 45.0657 65.0109 45.9282 64.8492 46.0629C64.6067 46.2516 62.0191 43.8258 55.9277 37.7344L47.3027 29.1094L50.5371 25.8751C52.316 24.0961 53.8254 22.6407 53.9063 22.6407C53.9871 22.6407 56.4938 25.0934 59.4856 28.0852ZM51.3457 39.3516L61.5879 49.5938L55.5774 55.5774L49.5938 61.5879L39.2977 51.2918L28.9746 40.9688L34.9043 35.0391C38.1656 31.7778 40.8879 29.1094 40.9688 29.1094C41.0496 29.1094 45.7125 33.7184 51.3457 39.3516ZM37.8422 56.0356C46.4402 64.6336 46.4402 64.6336 45.7934 65.0379C43.8527 66.3047 42.4781 66.709 39.8637 66.709C37.4379 66.709 37.1953 66.6551 35.2816 65.7118C33.5297 64.8223 32.6402 64.0676 27.8965 59.2969L22.5059 53.9063L25.7402 50.6719C27.5191 48.893 29.0285 47.4376 29.1094 47.4376C29.1902 47.4376 33.1254 51.3188 37.8422 56.0356ZM73.9863 61.9922L83.1504 71.1563L77.1399 77.1399L71.1563 83.1504L61.9383 73.9325L52.6934 64.6875L58.6231 58.7579C61.8844 55.4965 64.6067 52.8282 64.6875 52.8282C64.7684 52.8282 68.9461 56.952 73.9863 61.9922ZM96.0879 90.5625L109.025 103.5L106.249 106.249L103.5 109.025L90.5086 96.034L77.4902 83.0157L80.1856 80.3204C81.668 78.8379 82.9348 77.625 83.0156 77.625C83.0965 77.625 88.9723 83.4469 96.0879 90.5625Z" fill="url(#paint0_linear_11_23)"/>
<path d="M121.451 2.77623C120.993 3.23444 120.804 3.8274 120.669 5.06725C120.48 6.8192 119.645 8.78678 118.486 10.1614C117.435 11.4012 114.874 12.6411 112.907 12.8567C110.885 13.0454 109.969 13.7731 109.969 15.0938C109.969 16.4145 110.912 17.1422 112.88 17.3309C114.632 17.5196 116.599 18.3551 117.974 19.5141C119.214 20.5653 120.454 23.1258 120.669 25.0934C120.858 27.1149 121.586 28.0313 122.906 28.0313C124.227 28.0313 124.955 27.088 125.143 25.1204C125.602 20.8618 128.674 17.7891 132.933 17.3309C134.9 17.1422 135.844 16.4145 135.844 15.0938C135.844 13.7731 134.9 13.0454 132.933 12.8567C131.181 12.668 129.213 11.8325 127.839 10.6735C126.599 9.62233 125.359 7.06178 125.143 5.0942C124.955 3.07272 124.227 2.15631 122.906 2.15631C122.394 2.15631 121.828 2.39889 121.451 2.77623ZM124.577 13.3419L126.329 15.0938L124.604 16.7919L122.906 18.5169L121.208 16.7919L119.483 15.0938L121.127 13.3688C122.044 12.4524 122.771 11.6438 122.798 11.6169C122.798 11.6169 123.607 12.3715 124.577 13.3419Z" fill="url(#paint1_linear_11_23)"/>
<path d="M104.201 45.9012C103.743 46.3594 103.554 46.9523 103.419 48.1922C103.23 49.9441 102.395 51.9117 101.236 53.2863C100.185 54.5262 97.6242 55.766 95.6566 55.9816C93.6352 56.1703 92.7188 56.898 92.7188 58.2188C92.7188 59.5395 93.6621 60.2672 95.6297 60.4559C97.3816 60.6445 99.3492 61.4801 100.724 62.6391C101.964 63.6902 103.204 66.2508 103.419 68.2184C103.608 70.2398 104.336 71.1562 105.656 71.1562C106.977 71.1562 107.705 70.2129 107.893 68.2453C108.352 63.9867 111.424 60.9141 115.683 60.4559C117.65 60.2672 118.594 59.5395 118.594 58.2188C118.594 56.898 117.65 56.1703 115.683 55.9816C113.931 55.793 111.963 54.9574 110.589 53.7984C109.349 52.7473 108.109 50.1867 107.893 48.2191C107.705 46.1977 106.977 45.2812 105.656 45.2812C105.144 45.2812 104.578 45.5238 104.201 45.9012ZM107.327 56.4668L109.079 58.2188L107.354 59.9168L105.656 61.6418L103.958 59.9168L102.233 58.2188L103.877 56.4937C104.794 55.5773 105.521 54.7687 105.548 54.7418C105.548 54.7418 106.357 55.4965 107.327 56.4668Z" fill="url(#paint2_linear_11_23)"/>
<path d="M13.6383 84.7137C13.1801 85.1719 12.9914 85.7648 12.8566 87.0047C12.668 88.7566 11.8324 90.7242 10.6734 92.0988C9.62227 93.3387 7.06172 94.5785 5.09414 94.7941C3.07266 94.9828 2.15625 95.7105 2.15625 97.0312C2.15625 98.352 3.09961 99.0797 5.06719 99.2684C6.81914 99.457 8.78672 100.293 10.1613 101.452C11.4012 102.503 12.641 105.063 12.8566 107.031C13.0453 109.052 13.773 109.969 15.0938 109.969C16.4145 109.969 17.1422 109.025 17.3309 107.058C17.7891 102.799 20.8617 99.7266 25.1203 99.2684C27.0879 99.0797 28.0312 98.352 28.0312 97.0312C28.0312 95.7105 27.0879 94.9828 25.1203 94.7941C23.3684 94.6055 21.4008 93.7699 20.0262 92.6109C18.7863 91.5598 17.5465 88.9992 17.3309 87.0316C17.1422 85.0102 16.4145 84.0938 15.0938 84.0938C14.5816 84.0938 14.0156 84.3363 13.6383 84.7137ZM16.7648 95.2793L18.5168 97.0312L16.7918 98.7293L15.0938 100.454L13.3957 98.7293L11.6707 97.0312L13.3148 95.3062C14.2312 94.3898 14.959 93.5812 14.9859 93.5543C14.9859 93.5543 15.7945 94.309 16.7648 95.2793Z" fill="url(#paint3_linear_11_23)"/>
<defs>
<linearGradient id="paint0_linear_11_23" x1="69.041" y1="135.806" x2="69.041" y2="2.17889" gradientUnits="userSpaceOnUse">
<stop stop-color="#00A7FF"/>
<stop offset="1" stop-color="#6A2C91"/>
</linearGradient>
<linearGradient id="paint1_linear_11_23" x1="122.906" y1="28.0313" x2="122.906" y2="2.15631" gradientUnits="userSpaceOnUse">
<stop stop-color="#00A7FF"/>
<stop offset="1" stop-color="#6A2C91"/>
</linearGradient>
<linearGradient id="paint2_linear_11_23" x1="105.656" y1="71.1562" x2="105.656" y2="45.2812" gradientUnits="userSpaceOnUse">
<stop stop-color="#00A7FF"/>
<stop offset="1" stop-color="#6A2C91"/>
</linearGradient>
<linearGradient id="paint3_linear_11_23" x1="15.0938" y1="109.969" x2="15.0938" y2="84.0938" gradientUnits="userSpaceOnUse">
<stop stop-color="#00A7FF"/>
<stop offset="1" stop-color="#6A2C91"/>
</linearGradient>
</defs>
</svg>
