<svg width="138" height="138" viewBox="0 0 138 138" fill="none" xmlns="http://www.w3.org/2000/svg">
<path d="M84.7676 2.83003C84.0938 3.47691 84.0938 3.53082 84.0938 8.62496C84.0938 13.7191 84.0938 13.773 84.7676 14.4199C85.3336 15.0128 85.657 15.0937 87.5168 15.0937H89.5922L93.9316 19.4062L98.2711 23.7187H100.886H103.5V72.6386V121.585L102.826 122.232C101.964 123.122 100.724 123.122 99.8613 122.232C99.2145 121.612 99.1875 121.451 99.1875 118.109C99.1875 116.195 98.9988 113.553 98.7832 112.26C97.0852 102.611 89.2957 94.821 79.6465 93.123C78.0832 92.8535 75.5227 92.7187 72.0727 92.7187H66.8438V81.9375V71.1562H68.3262C69.566 71.1562 69.9434 71.0484 70.4824 70.4824C71.1562 69.8355 71.1562 69.7816 71.1562 64.7414C71.1562 58.5421 71.1293 58.4343 68.407 58.2187L66.709 58.0839L66.5203 56.4937C66.0621 52.8011 64.2832 48.1652 62.073 44.823C60.6984 42.7207 57.4641 39.3785 55.2809 37.7613C51.8039 35.2007 47.0063 33.2332 42.7477 32.6402C40.0523 32.2628 33.2602 32.2628 30.5648 32.6402C26.2523 33.2332 21.2391 35.3355 17.7352 37.9769C15.6059 39.5941 12.5871 42.7746 11.2395 44.823C9.0293 48.1652 7.25039 52.8011 6.79219 56.4937L6.60352 58.0839L4.90547 58.2187C2.1832 58.4343 2.15625 58.5421 2.15625 64.7414C2.15625 69.7816 2.15625 69.8355 2.83008 70.4824C3.36914 71.0484 3.74648 71.1562 4.98633 71.1562H6.46875V90.5625V109.969H4.98633C3.74648 109.969 3.36914 110.077 2.83008 110.643C2.15625 111.289 2.15625 111.343 2.15625 116.437C2.15625 121.532 2.15625 121.585 2.83008 122.232C3.39609 122.825 3.71953 122.906 5.52539 122.906C7.08867 122.906 7.54688 122.987 7.43906 123.23C6.25313 126.06 6.25313 128.701 7.38516 130.965C8.38242 132.906 9.21797 133.768 11.1047 134.793C12.668 135.628 12.9914 135.709 15.0938 135.709C17.1961 135.709 17.5195 135.628 19.0828 134.793C20.9695 133.768 21.8051 132.906 22.8023 130.965C23.9344 128.701 23.9344 126.06 22.7484 123.23C22.6137 122.987 25.5246 122.906 36.6562 122.906C47.7879 122.906 50.6988 122.987 50.5641 123.23C49.3781 126.06 49.3781 128.701 50.5102 130.965C51.5074 132.906 52.343 133.768 54.2297 134.793C55.793 135.628 56.1164 135.709 58.2188 135.709C60.3211 135.709 60.6445 135.628 62.2078 134.793C64.0945 133.768 64.9301 132.906 65.9273 130.965C67.0594 128.701 67.0594 126.06 65.8734 123.23C65.7656 122.987 66.2238 122.906 67.7871 122.906C69.593 122.906 69.9164 122.825 70.4824 122.232C71.1562 121.585 71.1562 121.532 71.1562 116.437C71.1562 111.343 71.1562 111.289 70.4824 110.643C69.9434 110.077 69.566 109.969 68.3262 109.969H66.8438V107.785V105.602L72.45 105.71L78.0293 105.791L79.8352 106.653C82.3148 107.812 83.9051 109.349 85.091 111.775L86.0883 113.769L86.277 118.809C86.4117 122.475 86.5734 124.227 86.9238 125.197C88.5949 130.022 92.1527 133.553 97.0312 135.197C99.0797 135.898 103.608 135.898 105.656 135.197C110.508 133.553 113.823 130.345 115.71 125.413L116.303 123.85L116.384 73.7707L116.438 23.7187H119.052H121.666L126.006 19.4062L130.345 15.0937H132.421C134.28 15.0937 134.604 15.0128 135.17 14.4199C135.844 13.773 135.844 13.7191 135.844 8.62496C135.844 3.53082 135.844 3.47691 135.17 2.83003L134.523 2.1562H109.969H85.4145L84.7676 2.83003ZM131.531 8.62496V10.7812H109.969H88.4062V8.62496V6.4687H109.969H131.531V8.62496ZM121.963 17.25L119.807 19.4062H109.969H100.131L97.9746 17.25L95.8184 15.0937H109.969H124.119L121.963 17.25ZM112.125 25.875V28.0312H109.969H107.812V25.875V23.7187H109.969H112.125V25.875ZM112.071 77.8406L111.99 123.337L110.993 125.386C109.78 127.839 108.217 129.348 105.71 130.534C104.066 131.316 103.662 131.396 101.344 131.396C99.0258 131.396 98.6215 131.316 96.9773 130.534C94.4977 129.375 92.9074 127.839 91.7215 125.413L90.7242 123.418L90.5355 118.378C90.3469 112.934 89.9965 111.397 88.3254 108.54C86.277 105.036 81.8836 102.179 77.652 101.559L75.4688 101.236V99.1066V96.9503L77.4094 97.166C81.8836 97.5972 85.7109 99.457 89.0801 102.826C91.5598 105.306 92.9883 107.57 93.9586 110.643C94.5785 112.502 94.6863 113.473 94.848 117.65C95.0637 123.176 95.2523 123.85 97.193 125.575C98.9719 127.138 101.02 127.569 103.338 126.895C104.821 126.464 107.058 124.227 107.489 122.744C107.732 121.882 107.812 111.262 107.812 76.9781V32.3437H109.969H112.125L112.071 77.8406ZM34.5 44.6074V52.5855L35.1738 53.2324L35.8207 53.9062H48.7582H61.6957L61.9652 55.3078C62.1 56.0894 62.2617 57.0597 62.3426 57.464L62.4504 58.2187H36.6562H10.8621L11.1047 56.5207C12.2637 48.6503 18.3012 41.2382 26.0098 38.2464C28.1121 37.4379 31.4273 36.7101 33.368 36.6832L34.5 36.6562V44.6074ZM42.9902 37.0605C47.6531 37.8691 51.9387 40.1062 55.3617 43.5023C57.0059 45.1195 59.8359 48.8929 59.8359 49.432C59.8359 49.5128 55.1191 49.5937 49.3242 49.5937H38.8125V43.125V36.6562H39.7289C40.2141 36.6562 41.6965 36.8449 42.9902 37.0605ZM66.8438 64.6875V66.8437H36.6562H6.46875V64.6875V62.5312H36.6562H66.8438V64.6875ZM62.5312 90.5625V109.969H36.6562H10.7812V90.5625V71.1562H36.6562H62.5312V90.5625ZM71.1562 99.1875V101.344H69H66.8438V99.1875V97.0312H69H71.1562V99.1875ZM66.8438 116.437V118.594H36.6562H6.46875V116.437V114.281H36.6562H66.8438V116.437ZM16.7918 123.284C19.568 124.443 20.2418 128.054 18.0855 130.21C16.3336 131.962 13.8539 131.962 12.102 130.21C8.75977 126.895 12.4523 121.451 16.7918 123.284ZM59.9168 123.284C62.693 124.443 63.3668 128.054 61.2105 130.21C59.4586 131.962 56.9789 131.962 55.227 130.21C51.8848 126.895 55.5773 121.451 59.9168 123.284Z" fill="url(#paint0_linear_11_18)"/>
<path d="M20.0801 76.1426L19.4062 76.7895V86.25V95.7105L20.0801 96.3574L20.727 97.0312H36.6562H52.5855L53.2324 96.3574L53.9062 95.7105V86.25V76.7895L53.2324 76.1426L52.5855 75.4688H36.6562H20.727L20.0801 76.1426ZM49.5938 86.25V92.7188H36.6562H23.7188V86.25V79.7812H36.6562H49.5938V86.25Z" fill="url(#paint1_linear_11_18)"/>
<path d="M28.0312 86.25V88.4062H36.6562H45.2812V86.25V84.0938H36.6562H28.0312V86.25Z" fill="url(#paint2_linear_11_18)"/>
<defs>
<linearGradient id="paint0_linear_11_18" x1="69" y1="135.722" x2="69" y2="2.1562" gradientUnits="userSpaceOnUse">
<stop stop-color="#6A2C91"/>
<stop offset="1" stop-color="#00A7FF"/>
</linearGradient>
<linearGradient id="paint1_linear_11_18" x1="36.6562" y1="97.0312" x2="36.6562" y2="75.4688" gradientUnits="userSpaceOnUse">
<stop stop-color="#6A2C91"/>
<stop offset="1" stop-color="#00A7FF"/>
</linearGradient>
<linearGradient id="paint2_linear_11_18" x1="36.6562" y1="88.4062" x2="36.6562" y2="84.0938" gradientUnits="userSpaceOnUse">
<stop stop-color="#6A2C91"/>
<stop offset="1" stop-color="#00A7FF"/>
</linearGradient>
</defs>
</svg>
